<svg class="logo" viewBox="0 0 820 820" xmlns="http://www.w3.org/2000/svg">
  <style>
    .logo {
      --guard-primary: #08115e;
      --guard-secondary: #5b6af0;
    }
    .logo__circuit-path,
    .logo__core-circle {
      fill: #f1f5f9;
    }
    .logo__circuit-path {
      stroke: #8a95f4;
      stroke-width: 3;
    }
    .logo__cross-gradient-s1 {
      stop-color: #04082f;
    }
    .logo__cross-gradient-s2 {
      stop-color: #08115e;
    }
    .logo__cross-gradient-s3 {
      stop-color: #04082f;
    }
    .logo__face-silhouette {
      fill: #04082f;
      stroke: none;
    }
    .logo__guard-bottom {
      fill: none;
      stroke: var(--guard-primary);
      stroke-width: 20;
    }
    .logo__guard-bottom-inner-circle {
      fill: var(--guard-primary);
      stroke: none;
    }
    .logo__guard-top {
      fill: none;
      stroke: var(--guard-primary);
      stroke-width: 20;
    }
    .logo__guard-top-inner-circle {
      fill: #f1f5f9;
      stroke: var(--guard-primary);
      stroke-width: 10;
    }
  </style>
  <defs>
    <linearGradient id="logo__cross-gradient" x1="0" x2="0" y1="0" y2="1">
      <stop class="logo__cross-gradient-s1" offset="0%" />
      <stop class="logo__cross-gradient-s2" offset="50%" />
      <stop class="logo__cross-gradient-s3" offset="100%" />
    </linearGradient>
  </defs>
  <path class="logo__face-silhouette" d="M426.98 4c275 10 350 350 135 500 0 0 0 100 55 160a400 400 0 0 0-245 110h-45a400 400 0 0 1 70-100 400 400 0 0 0-25-105c-10-20-10-50-90-30-38 8-48 10-58 10-35 0-49-24-36-57q3-5 2-11-1-10-12-16c-11-6-9-7-6-14q5-8 11-11l-3-2q-16-9-16-18 0-3 5-5 11-5 8-16c-3-11-7-11-21-17s-18-9-21-13q-5-6 4-17 37-51 43-77c3-10 3-14 0-26l-6-37c-2-19 1-46 7-63 17-49 55-91 106-116q70-32 141-29" />
  <path class="logo__circuit-path" d="M430 145V85l-20-20V40a7.5 7.5 0 0 1 0-15 7.5 7.5 0 0 1 0 15v25h-25a7.5 7.5 0 0 1-15 0 7.5 7.5 0 0 1 15 0h25l20 20v350a7.5 7.5 0 0 1 0 15 7.5 7.5 0 0 1 0-15zm60 20v-50l20-20V60a7.5 7.5 0 0 1 0-15 7.5 7.5 0 0 1 0 15v35l-20 20-20-20V60a7.5 7.5 0 0 1 0-15 7.5 7.5 0 0 1 0 15v35l20 20v250l30 30v230a7.5 7.5 0 0 1 0 15 7.5 7.5 0 0 1 0-15V395l-30-30z" />
  <path class="logo__circuit-path" d="M516.464 211.464v-70.71l35.356-35.356a7.5 7.5 0 0 1 10.606-10.606 7.5 7.5 0 0 1-10.606 10.606l-35.356 35.356z" />
  <path class="logo__circuit-path" d="M520 210h40l25-25v-30a7.5 7.5 0 0 1 0-15 7.5 7.5 0 0 1 0 15v30h40a7.5 7.5 0 0 1 15 0 7.5 7.5 0 0 1-15 0h-40l-25 25H430m0 30h140l12.5-12.5h55a7.5 7.5 0 0 1 15 0 7.5 7.5 0 0 1-15 0h-55L570 240H260a7.5 7.5 0 0 1-15 0 7.5 7.5 0 0 1 15 0zm80 50h40l20-20h70a7.5 7.5 0 0 1 15 0 7.5 7.5 0 0 1-15 0h-70l-20 20 20 20v30a7.5 7.5 0 0 1 0 15 7.5 7.5 0 0 1 0-15v-30h50a7.5 7.5 0 0 1 15 0 7.5 7.5 0 0 1-15 0h-50l-20-20H315l-20-20h-70a7.5 7.5 0 0 1-15 0 7.5 7.5 0 0 1 15 0h70l20 20-20 20h-60a7.5 7.5 0 0 1-15 0 7.5 7.5 0 0 1 15 0h60v30a7.5 7.5 0 0 1 0 15 7.5 7.5 0 0 1 0-15v-30l20-20z" />
  <path class="logo__circuit-path" d="M520 240v113l40 40v40a7.5 7.5 0 0 1 0 15 7.5 7.5 0 0 1 0-15v-40l-40-40zm40 153h35.355l21.214-21.213a7.5 7.5 0 0 1 10.606-10.607 7.5 7.5 0 0 1-10.606 10.607L595.355 393zM430 190H315l-20 20h-70a7.5 7.5 0 0 1-15 0 7.5 7.5 0 0 1 15 0h70l20-20-20-20h-50a7.5 7.5 0 0 1-15 0 7.5 7.5 0 0 1 15 0h50l20 20zm-80 20v150l-20 20v50a7.5 7.5 0 0 1 0 15 7.5 7.5 0 0 1 0-15v-50h-50l-20 20h-40a7.5 7.5 0 0 1-15 0 7.5 7.5 0 0 1 15 0h40v40a7.5 7.5 0 0 1 0 15 7.5 7.5 0 0 1 0-15v-40l20-20-20-20h-50a7.5 7.5 0 0 1-15 0 7.5 7.5 0 0 1 15 0h50l20 20h50l20-20z" />
  <path class="logo__circuit-path" d="M385 390a7.5 7.5 0 0 1 0-15 7.5 7.5 0 0 1 0 15v90l40 40v50a7.5 7.5 0 0 1 0 15 7.5 7.5 0 0 1 0-15v-50l-40-40h-70l-20-20v-40a7.5 7.5 0 0 1 0-15 7.5 7.5 0 0 1 0 15v40l20 20-20 20h-40a7.5 7.5 0 0 1-15 0 7.5 7.5 0 0 1 15 0h40l20-20h70zm-35-180v-70.71l-53.033-53.034A7.5 7.5 0 0 1 286.36 75.65a7.5 7.5 0 0 1 10.607 10.606L350 139.29zm-55-40v-21.213l-35.355-35.356a7.5 7.5 0 0 1-10.607-10.606 7.5 7.5 0 0 1 10.607 10.606L295 148.787zm83.284 11.716v-70.71l-49.497-49.498A7.5 7.5 0 0 1 318.18 50.9a7.5 7.5 0 0 1 10.607 10.607l49.497 49.497zM475 422a7.5 7.5 0 0 1 0-15 7.5 7.5 0 0 1 0 15v180z" />
  <path class="logo__circuit-path" d="M475 600v14.142l-35.355 35.355a7.5 7.5 0 0 1-10.607 10.607 7.5 7.5 0 0 1 10.607-10.607L475 614.142z" />
  <g transform="translate(0 -10)">
    <circle class="logo__core-circle" cx="430" cy="250" r="100" />
    <path fill="url(#logo__cross-gradient)" d="M400 175a5 5 0 0 0-5 5v30a5 5 0 0 1-5 5h-30a5 5 0 0 0-5 5v60a5 5 0 0 0 5 5h30a5 5 0 0 1 5 5v30a5 5 0 0 0 5 5h60a5 5 0 0 0 5-5v-30a5 5 0 0 1 5-5h30a5 5 0 0 0 5-5v-60a5 5 0 0 0-5-5h-30a5 5 0 0 1-5-5v-30a5 5 0 0 0-5-5z" />
    <g fill="#f1f5f9">
      <path d="m426.72 240.48-.32-11.45c-3.6-.16-6.1-3.87-6.56-7.58-.78-4.03-5-7.26-9.38-3.22-4.53 3.87-15.32 11.77-19.38 12.9-4.06.97 4.38 3.87 7.5 2.74-3.6 3.23 1.57 5.8 6.25 3.39-1.56 2.9 5.16 3.7 8.9.32 4.55-2.9 10.48.48 12.98 2.9m42.2-9.35c-4.06-1.13-14.85-9.03-19.38-12.9-4.37-4.04-8.75-.81-9.38 3.22-.62 3.71-3.12 7.42-6.56 7.58l-.31 11.45c2.5-2.42 8.44-5.8 12.97-2.9 3.75 3.39 10.47 2.58 8.9-.32 4.7 2.42 9.85-.16 6.26-3.39 3.13 1.13 11.56-1.77 7.5-2.74m-33.13-8.87c0 1.58-.61 3.1-1.7 4.22a5.7 5.7 0 0 1-4.08 1.75 5.7 5.7 0 0 1-4.1-1.75 6 6 0 0 1-1.7-4.22c0-1.58.62-3.1 1.7-4.22a5.7 5.7 0 0 1 4.1-1.75c1.53 0 3 .63 4.09 1.75a6 6 0 0 1 1.69 4.22" />
      <path d="m421.87 253.23 4.53-1.3c-2.97-.8-5.15-1.12-6.25-3.06q-.47-.8-.15-1.77c.3-.97 1.25-1.3 3.9-2.26q2.5-.97 2.35-2.58 0-.97-1.41-1.3-1.1-.15-2.2-.8-1.4-.48-2.96-.32h-.47a6.6 6.6 0 0 0-4.37 2.9 7.6 7.6 0 0 0 1.56 10.32l2.34 1.46zm9.22 35q2.19 2.74 1.4 4.67.16.49.48.16l.62-1.12q1.25-3.23 0-5.65-1.56.97-2.5 1.94m9.85-31.78-5.47 1.61-1.57.49-.46.16 1.56.32c2.03.65 3.75 1.94 2.65 5q-.62 1.94-4.68 3.23l-1.57.48-1.4.32-1.41.49-.94.32q-2.03.65-3.44 1.61l-1.4 1.3a8.4 8.4 0 0 0-1.72 5.32 6.9 6.9 0 0 0 3.75 6.29l.94.48q.93-1.29 2.65-2.58l-.15-.16-.32-.16q-2.18-1.3-2.8-3.07c-.16-1.13-.32-2.58 2.5-4.03l.93-.48.94-.33.47-.16 1.4-.64 5.94-2.58q5.78-2.75 5.94-7.1 0-4.2-2.34-6.13m-9.85 31.78" />
      <path d="M432.34 273.87c2.66 1.45 2.5 2.9 2.35 4.03q-.47 1.78-2.66 3.07l-.47.16v.16l-.31.16-1.25.8-1.25.98-1.57 1.6-.93 1.46q-1.1 2.42.15 5.65l.47 1.12q.47.33.47-.16-.62-1.93 1.4-4.67l.16.16v-.33l1.1-1.12 1.1-1.13 1.55-.97 1.57-.97.78-.48a7.1 7.1 0 0 0 3.9-6.3q-.15-2.9-1.87-5.32zm8.28-34.03h-.46a6 6 0 0 0-2.82.32q-1.25.65-2.2.8c-1.24.17-1.24.65-1.4 1.3q-.15 1.61 2.2 2.58c2.8.97 3.75 1.29 4.06 2.26q.3.8-.31 1.77c-1.1 1.94-3.28 2.26-6.25 3.06l-.32.17-1.4.32-1.72.48-1.72.33-5.94 1.6-1.4.5-2.04 1.12q-2.34 1.94-2.34 6.13.15 4.36 5.93 7.1a12 12 0 0 1 4.38-2.42q-4.06-1.3-4.7-3.23c-.93-3.06.64-4.35 2.67-5l1.72-.32 1.87-.48 1.57-.49 1.56-.48 1.87-.49 5.47-1.45 2.2-.8 2.34-1.46c4.06-3.38 3.44-7.74 1.56-10.32-1-1.55-2.6-2.6-4.38-2.9" />
      <path d="M428.9 291.45v.65l.16 1.45v2.74h1.88v-2.42l.15-5.64-1.1 1.29q-.93 1.13-1.1 1.93m1.1-11.29.79-.48.3-.32h.17l.15-4.04v-1.13l-1.25.49H430l-1.41.64.16 4.04v1.6zm-.62-13.7.63-.17 1.56-.48v-6.62l-.94.17-.62.16-1.57.48.16 5.8v.97zm-1.56-37.27.47 21.46v.8l1.72-.48 1.72-.49.46-21.29a8 8 0 0 1-4.37 0" />
    </g>
  </g>
  <path class="logo__guard-top" d="M104.954 212.41c-108.77 161.24-78.23 378.582 70.762 503.603s368.335 117.36 508.24-17.753l7.194-6.947" />
  <path class="logo__guard-top-inner-circle" d="M104.953 212.41a15 15 0 1 0 16.776-24.873 15 15 0 0 0-16.776 24.873" />
  <path class="logo__guard-bottom" d="M690.903 705.453c-11.168-11.565-14.632-28.871-9.088-45.4s19.255-29.769 35.967-34.733 33.887-.897 45.055 10.667m6.947 7.194c11.168 11.565 14.632 28.871 9.088 45.4s-19.255 29.769-35.967 34.733c-16.713 4.964-33.887.897-45.055-10.667" />
  <path class="logo__guard-bottom-inner-circle" d="M712.36 691.683a24.998 24.998 0 1 1 35.967-34.732 25 25 0 1 1-35.967 34.732" />
</svg>